<svg xmlns:dc="http://purl.org/dc/elements/1.1/" xmlns:cc="http://creativecommons.org/ns#" xmlns:rdf="http://www.w3.org/1999/02/22-rdf-syntax-ns#" xmlns:svg="http://www.w3.org/2000/svg" xmlns="http://www.w3.org/2000/svg" xmlns:sodipodi="http://sodipodi.sourceforge.net/DTD/sodipodi-0.dtd" xmlns:inkscape="http://www.inkscape.org/namespaces/inkscape" version="1.1" viewBox="0 0 32 40" x="0px" y="0px"><g style="" display="inline"><path style="opacity:1;fill:#000000;fill-opacity:1;stroke:none;stroke-width:3;stroke-linecap:round;stroke-linejoin:miter;stroke-miterlimit:4;stroke-dasharray:none;stroke-opacity:1" d="M 16 2 A 8 8 0 0 0 8 10 A 8 8 0 0 0 16 18 A 8 8 0 0 0 24 10 A 8 8 0 0 0 16 2 z M 9.5234375 17.595703 C 5.0543275 19.933963 2 24.606611 2 30 L 30 30 C 30 24.606611 26.945673 19.933963 22.476562 17.595703 C 20.727853 19.090259 18.46622 20 16 20 C 13.53378 20 11.272147 19.090259 9.5234375 17.595703 z "/></g><text x="0" y="47" fill="#000000" font-size="5px" font-weight="bold" font-family="'Helvetica Neue', Helvetica, Arial-Unicode, Arial, Sans-serif">Created by sketsa_kasar</text><text x="0" y="52" fill="#000000" font-size="5px" font-weight="bold" font-family="'Helvetica Neue', Helvetica, Arial-Unicode, Arial, Sans-serif">from the Noun Project</text></svg>